<svg width="169.33mm" height="118.53mm" version="1.1" viewBox="0 0 169.33 118.53" xmlns="http://www.w3.org/2000/svg">
 <g transform="translate(-15.292 -16.167)">
  <path transform="scale(.26458)" d="m313.8 61.104c-88.4 0-160 71.6-160 160 0 2.7 0.0992 5.3996 0.19921 8.0996-56 19.7-96.199 73.1-96.199 135.9 0 79.5 64.5 144 144 144h368c70.7 0 128-57.3 128-128 0-61.9-44-113.6-102.4-125.4 4.1-10.7 6.4004-22.4 6.4004-34.6 0-53-43-96-96-96-19.7 0-38.101 5.9992-53.301 16.199-27.7-48-79.399-80.199-138.7-80.199zm63.58 160a14.435 14.435 0 0 1 10.42 4.2207l97.775 97.801a14.43 14.43 0 0 1 0 20.404l-97.346 97.346a14.43 14.43 0 0 1-20.4 0l-97.805-97.801a14.43 14.43 0 0 1 0-20.404l67.061-67.07 25.395 25.426c-2.98 7.13-1.0797 18.245 9.3203 22.5v61.5c-11.16 4.545-14.41 19.2-5.625 28a17.17 17.17 0 0 0 24.275 0c6.59-6.575 8.109-21.23-4.541-27.5v-60.926l23.176 23.145c-7.105 17.235 14.755 31.915 28 18.67 12.855-12.845-0.61935-34.244-17.734-28.344l-24.83-24.83c4.645-13.455-8.1653-26.41-21.695-21.84l-25.76-25.762 20.33-20.314a14.435 14.435 0 0 1 9.9844-4.2207z" fill="#0177ce"/>
 </g>
</svg>
